<?xml version="1.0" encoding="iso-8859-1"?>
<!-- Generator: Adobe Illustrator 18.1.1, SVG Export Plug-In . SVG Version: 6.00 Build 0)  -->
<svg xmlns="http://www.w3.org/2000/svg" xmlns:xlink="http://www.w3.org/1999/xlink" version="1.1" id="Capa_1" x="0px" y="0px" viewBox="0 0 611.999 611.999" style="enable-background:new 0 0 611.999 611.999;" xml:space="preserve" width="512px" height="512px">
<g>
	<g>
		<path d="M90.874,381.094c2.153,35.421,16.752,70.226,43.817,97.292c58.81,58.81,154.16,58.81,212.969,0s58.81-154.159,0-212.969    s-154.16-58.81-212.969,0c-18.101,18.101-30.622,39.667-37.581,62.561c9.134-2.024,19.075,0.51,26.18,7.615    c11.062,11.062,11.062,28.997,0,40.058C114.521,384.421,101.434,386.229,90.874,381.094z M256.443,385.553    c11.988-11.989,31.426-11.989,43.414,0c11.988,11.988,11.988,31.425,0,43.414c-11.988,11.989-31.426,11.989-43.414,0    C244.455,416.978,244.455,397.541,256.443,385.553z M199.658,268.958c10.215-10.215,26.776-10.215,36.99,0    c10.215,10.215,10.215,26.776,0,36.99c-10.215,10.215-26.776,10.215-36.99,0C189.443,295.734,189.443,279.173,199.658,268.958z     M156.172,400.689c9.121-9.12,23.909-9.12,33.029,0c9.121,9.12,9.121,23.908,0,33.029c-9.12,9.12-23.908,9.12-33.029,0    C147.051,424.597,147.051,409.809,156.172,400.689z" fill="#FFFFFF"/>
		<path d="M245.372,177.305c47.553-0.349,86.681,19.526,86.681,19.526L500.215,2.117L245.372,177.305z" fill="#FFFFFF"/>
		<path d="M610.96,112.861L416.246,281.023c0,0,19.875,39.128,19.526,86.681L610.96,112.861z" fill="#FFFFFF"/>
	</g>
</g>
<g>
</g>
<g>
</g>
<g>
</g>
<g>
</g>
<g>
</g>
<g>
</g>
<g>
</g>
<g>
</g>
<g>
</g>
<g>
</g>
<g>
</g>
<g>
</g>
<g>
</g>
<g>
</g>
<g>
</g>
</svg>
